# xmcd
#
# Track frame offsets:
#	150
#	10597
#	27367
#	44512
#	56490
#	75775
#	91100
#	101490
#	117785
#	130960
#	142442
#
# Disc length: 2087 seconds
#
# Revision: 1
# Processed by: cddbd v1.5.1PL0 Copyright (c) Steve Scherf et al.
# Submitted via: MusicWizard 7.1.1b
#
DISCID=8508250b
DTITLE=Doc Watson - Arthel 'Doc' Watson - Portrait
DYEAR=1987
DGENRE=Bluegrass
TTITLE0=I'm Worried Now
TTITLE1=Nobody Knows But Me
TTITLE2=Leaving London
TTITLE3=Stay In The Middle Of The Road
TTITLE4=Risin' Sun Blues
TTITLE5=George Gudger's Overalls
TTITLE6=Tucker's Barn
TTITLE7=Storms On The Ocean
TTITLE8=Prayer Bells Of Heaven
TTITLE9=Tough Luck Man
TTITLE10=Blue Eyed Jane
EXTD=Arrangement: T. Michael Coleman and Doc Watson\n(c)1987 Sugar HillRecords\nLP upc 01589137591
EXTD=50\nLP Katalog: SH-3759\n\nDoc Watson:Guitar, 12-string guitar, Banjo, Harmonica, Autoharp, V
EXTD=ocals\nT.Michael Coleman: Bass\nJack Lawrence: Guitar\nMark O'Connor:Fiddle\nJerry Douglas: D
EXTD=obro\nSam Bush: Fiddle, Mandolin\nPatMcInery: Percussion\nAlan O'Bryant, Pat Enright, Mike Ca
EXTD=mpton, MarkHembree, T. Michael Coleman: Harmony Vocals - \n
EXTT0=Songwriter: Doc Watson
EXTT1=Songwriter: E. McWilliams/J. Rodgers (APRS/BMI)
EXTT2=Songwriter: Tom Paxton (Deep Fork Music, ASCAP)
EXTT3=Songwriter: Trad., Arr. Doc Watson (Hillgreen Music, BMI)
EXTT4=Songwriter: Trad., Arr. Doc Watson (Hillgreen Music, BMI)
EXTT5=Songwriter: L. Hammond (Desert Jewel Songs, BMI)
EXTT6=Songwriter: Trad., Arr. Doc Watson (Hillgreen Music, BMI)
EXTT7=Songwriter: A. P. Carter (APRS/BMI)
EXTT8=Songwriter: Trad., Arr. Doc Watson (Hillgreen Music, BMI)
EXTT9=Songwriter: C. Ashley (Stormking Music, BMI)
EXTT10=Songwriter: L. White/J. Rodgers (Peer International, BMI)
PLAYORDER=
